PathFileType	4	(X/Y/Z)	s10c0203.trc
DataRate	CameraRate	NumFrames	NumMarkers	Units	OrigDataRate	OrigDataStartFrame	OrigNumFrames
200	200	7	49	mm	200	0	2000
Frame#	Time	racr			lacr			c7			jug			rlel			rdr			llel			ldr			s2			lic			ric			lasi			rasi			rpsi			lpsi			rgt			lgt			rth1			rth2			rth3			rth4			rlfc			rmfc			rsh1			rsh2			rsh3			rsh4			rlmal			rmmal			rcal			rtoe			rmt5			lth1			lth2			lth4			lth3			llfc			lmfc			llmal			lcal			lmt5			lsh1			lsh2			lsh3			lsh4			ltoe			SBIKE			LBIKE			RBIKE			
		X1	Y1	Z1	X2	Y2	Z2	X3	Y3	Z3	X4	Y4	Z4	X5	Y5	Z5	X6	Y6	Z6	X7	Y7	Z7	X8	Y8	Z8	X9	Y9	Z9	X10	Y10	Z10	X11	Y11	Z11	X12	Y12	Z12	X13	Y13	Z13	X14	Y14	Z14	X15	Y15	Z15	X16	Y16	Z16	X17	Y17	Z17	X18	Y18	Z18	X19	Y19	Z19	X20	Y20	Z20	X21	Y21	Z21	X22	Y22	Z22	X23	Y23	Z23	X24	Y24	Z24	X25	Y25	Z25	X26	Y26	Z26	X27	Y27	Z27	X28	Y28	Z28	X29	Y29	Z29	X30	Y30	Z30	X31	Y31	Z31	X32	Y32	Z32	X33	Y33	Z33	X34	Y34	Z34	X35	Y35	Z35	X36	Y36	Z36	X37	Y37	Z37	X38	Y38	Z38	X39	Y39	Z39	X40	Y40	Z40	X41	Y41	Z41	X42	Y42	Z42	X43	Y43	Z43	X44	Y44	Z44	X45	Y45	Z45	X46	Y46	Z46	X47	Y47	Z47	X48	Y48	Z48	X49	Y49	Z49	
0	0.0000	413.637797	1343.743516	-55.066239	429.225904	1352.077560	-391.029376	403.615581	1383.987467	-222.762994	373.118765	1243.635880	-220.676186	479.290507	1087.115994	19.258688	617.981597	912.089209	-30.700829	475.500491	1083.826590	-486.367232	619.501554	908.760859	-435.592965	-58.954085	1113.342056	-215.774970	105.370548	1083.624870	-372.033815	128.300855	1087.960911	-95.822781	116.107385	994.510979	-347.210671	118.873716	1007.352570	-93.985889	-5.417186	1144.407388	-164.974382	-0.968794	1144.649360	-277.539114	3.327596	1026.442916	-17.100916	-32.038467	988.196888	-416.186971	84.532905	918.411221	-2.086097	167.472693	892.680515	-20.879172	225.124352	829.532000	-28.849403	183.387058	924.130417	-35.105211	319.831871	768.509343	-53.182551	307.909766	755.940365	-169.988367	266.899035	664.529352	-25.813303	273.020891	576.129019	-36.921673	235.313382	498.553973	-42.743165	303.803000	573.684702	-60.829588	215.292009	396.437222	-59.845405	237.898639	416.438826	-138.617936	163.830301	373.098174	-107.396099	405.481594	356.351389	-105.544740	325.464961	327.046315	-42.357072	38.065499	876.816828	-431.877367	115.112344	837.740175	-422.447864	138.707260	864.207877	-413.458901	162.839031	762.987287	-420.714890	238.836253	680.532051	-406.457356	244.780146	674.499216	-284.060247	-53.194184	444.861126	-376.504232	-114.895712	446.981253	-328.939613	-1.995343	315.297798	-399.401489	134.397433	616.632465	-425.070919	93.771978	539.676077	-407.035923	16.613762	496.405312	-398.265110	116.543406	522.717771	-381.894334	79.348586	301.388921	-350.981517	-217.386491	831.984003	-214.358619	-104.090175	81.852017	-417.419568	-103.541662	81.414106	-18.052295	
1	0.0050	413.629604	1343.708797	-55.082578	429.236146	1352.071132	-391.055300	403.612220	1383.963767	-222.768876	373.131600	1243.608346	-220.698153	479.267961	1087.091123	19.229125	618.001907	912.085094	-30.649810	475.526164	1083.829397	-486.406819	619.512658	908.766726	-435.610358	-58.934331	1113.355450	-215.825479	105.378882	1083.624387	-372.071810	128.287082	1088.026436	-95.831449	116.107899	994.503585	-347.233183	118.878603	1007.426609	-94.004525	-5.461957	1144.423093	-164.988013	-0.974112	1144.642619	-277.587442	4.056664	1026.417773	-17.178602	-32.021164	988.198917	-416.221671	84.250862	917.903965	-1.510639	166.717079	891.443834	-20.558700	225.147425	829.617555	-28.814920	183.390253	924.265447	-35.157999	319.861722	768.576032	-53.150157	307.938288	756.022856	-169.958266	266.924241	664.593177	-25.799337	273.051745	576.189519	-36.916810	235.339175	498.631582	-42.752069	303.844958	573.750081	-60.786728	215.313323	396.506225	-59.834584	237.901445	416.504139	-138.626237	163.821742	373.302004	-107.375237	405.487147	356.385228	-105.536555	325.473442	327.099185	-42.362523	38.089596	876.802308	-431.895340	115.131018	837.707840	-422.443650	138.738225	864.177336	-413.466391	162.845718	762.973394	-420.727212	238.859164	680.517126	-406.428201	244.778232	674.479490	-284.024571	-53.164224	444.824046	-376.504578	-114.872355	446.932085	-328.931140	-1.989039	315.226207	-399.410368	134.418377	616.595577	-425.058574	93.795681	539.637659	-407.044534	16.647144	496.376146	-398.262297	116.568302	522.690767	-381.882904	79.338577	301.289616	-350.961946	-217.373371	831.975810	-214.343575	-104.091960	81.860318	-417.417039	-103.534023	81.427030	-18.030212	
2	0.0100	413.628332	1343.698313	-55.117764	429.229059	1352.057305	-391.066135	403.621139	1383.959022	-222.803423	373.090237	1243.614598	-220.729040	479.246937	1087.080102	19.217870	617.994198	912.092581	-30.597024	475.544268	1083.830727	-486.450646	619.527664	908.761619	-435.603954	-58.937734	1113.354471	-215.865596	105.371930	1083.613691	-372.096269	128.270848	1088.045131	-95.865161	116.130312	994.489643	-347.221641	118.879849	1007.436609	-94.007919	-5.239137	1144.676110	-164.841215	-0.961190	1144.644926	-277.630833	4.061396	1026.449275	-17.215780	-31.999788	988.172721	-416.245587	84.229581	917.985645	-1.485966	166.721222	891.556843	-20.567774	225.141509	829.687351	-28.784710	183.368998	924.328554	-35.159037	319.874705	768.631287	-53.124577	307.981590	756.161978	-169.931127	266.947896	664.680749	-25.783801	273.065731	576.239549	-36.903284	235.348298	498.730906	-42.745461	303.851466	573.816623	-60.742617	215.313827	396.595976	-59.815167	237.925345	416.550397	-138.618297	163.832065	373.358029	-107.396803	405.497322	356.429101	-105.530305	325.466852	327.166568	-42.362505	38.116386	876.788621	-431.900181	115.150331	837.691780	-422.446007	138.752609	864.158345	-413.469354	162.862991	762.938580	-420.715169	238.866614	680.480201	-406.427749	244.777290	674.456729	-284.022914	-53.147111	444.775066	-376.494469	-114.854992	446.893197	-328.933949	-1.981809	315.166984	-399.396931	134.439101	616.563013	-425.029383	93.820072	539.608000	-407.023496	16.671273	496.310943	-398.257887	116.594911	522.650629	-381.875636	79.359703	301.239581	-350.977151	-217.375273	831.976946	-214.351167	-104.079483	81.846932	-417.410974	-103.541214	81.426220	-18.028307	
3	0.0150	413.602299	1343.686994	-55.146386	429.233788	1352.039994	-391.098170	403.283352	1383.903288	-222.707438	373.806910	1243.335021	-220.543084	479.209705	1087.098005	19.165080	618.008717	912.089517	-30.541702	476.132463	1083.862543	-485.634704	619.542995	908.761589	-435.633176	-57.961712	1113.086138	-217.849473	105.367358	1083.620237	-372.150555	128.586995	1088.215267	-95.914241	116.612545	994.938585	-347.429891	118.870446	1007.461560	-94.031589	-5.228250	1144.258487	-165.164153	-0.969592	1144.631158	-277.661981	4.055272	1026.483400	-17.233479	-31.981481	988.146713	-416.267419	84.218825	918.050942	-1.489672	166.797248	892.761401	-21.526685	225.213838	829.755128	-28.755907	183.432490	924.231988	-35.260443	319.901641	768.705884	-53.100873	306.334340	755.752127	-169.515956	266.928976	664.802395	-25.763127	273.219806	576.484691	-36.934820	235.365800	498.789508	-42.732953	303.937254	573.893066	-60.674590	215.210022	396.783985	-59.719789	239.171668	417.531352	-139.360213	163.826614	373.460394	-107.364337	405.508229	356.483967	-105.531617	325.492236	327.231521	-42.368576	38.134930	876.761510	-431.903955	115.157388	837.662103	-422.450506	138.755008	864.344432	-413.709387	163.431644	763.317346	-420.839893	238.872420	680.441691	-406.387290	244.636561	674.618714	-284.043254	-53.126614	444.724060	-376.488108	-114.829560	446.832148	-328.938469	-1.974318	315.109173	-399.410175	134.448923	616.530305	-425.027163	93.726528	538.577931	-407.214358	16.692888	496.287758	-398.255105	116.663280	522.788618	-382.215202	79.366407	301.183460	-350.976961	-217.841972	830.911175	-214.086104	-104.076869	81.874838	-417.409447	-103.540306	81.440683	-18.033739	
4	0.0200	413.642993	1343.644120	-55.194664	429.278502	1351.917371	-390.921485	403.235438	1383.868721	-222.595654	373.949770	1243.262185	-220.332607	479.239600	1087.108157	19.132007	617.624440	911.086062	-30.553806	476.082605	1083.000098	-485.364022	619.470318	908.630078	-435.488618	-58.437130	1112.329207	-217.168627	105.749312	1082.829152	-372.765902	128.541064	1088.224614	-95.891955	116.130532	993.866156	-347.225844	118.997835	1007.473509	-93.838343	-5.463846	1144.374137	-165.187569	-0.813366	1144.583036	-277.709994	3.590682	1026.719416	-17.215953	-31.998745	987.679061	-416.485149	84.249258	918.080337	-1.536850	166.875033	892.792362	-21.580852	225.405562	829.933623	-28.667582	183.463122	924.424001	-35.083769	320.035190	768.822849	-52.955594	307.023436	755.989578	-169.448797	267.111421	664.850169	-25.689358	273.384888	576.475007	-36.770026	235.458527	498.894725	-42.626877	303.879952	573.903236	-60.504104	215.067392	396.167958	-59.995964	239.096331	417.495307	-139.074797	163.747052	373.921548	-106.888998	405.523414	356.436852	-105.619434	325.587609	327.333091	-42.267464	38.089875	876.094828	-431.941603	114.911064	836.779676	-422.147723	138.441734	863.371986	-413.424144	163.403463	762.412468	-421.166162	238.617466	679.430625	-405.958529	244.618725	674.535743	-283.991792	-53.367532	444.022165	-376.455518	-115.064085	446.150939	-328.966690	-2.231211	314.133071	-399.508089	134.481261	615.747583	-425.089009	93.753225	538.333780	-407.158401	16.565493	495.522329	-398.260801	116.659173	522.654226	-381.956055	79.237896	300.464173	-351.131081	-217.810800	830.859166	-214.246539	-104.254375	80.514751	-418.341336	-103.984076	80.666129	-18.301348	
5	0.0250	413.619469	1343.612573	-55.211720	429.305420	1351.897965	-390.920231	403.245561	1383.859341	-222.629007	373.911673	1243.262814	-220.366046	479.241480	1087.111606	19.142212	617.545232	911.027008	-30.525009	476.023769	1082.921473	-485.446761	619.549424	908.805061	-435.648135	-58.515580	1112.283464	-217.118349	105.827202	1082.713515	-372.856816	128.536836	1088.238144	-95.937784	116.082753	993.745253	-347.223337	119.011165	1007.496111	-93.812607	-5.422593	1144.166570	-165.163514	-0.842841	1144.600162	-277.698395	3.540945	1026.757892	-17.247641	-31.988968	987.623237	-416.517098	84.245320	918.121894	-1.539503	166.872606	892.886501	-21.553659	225.411213	830.024924	-28.630538	183.456712	924.492576	-35.073328	320.053875	768.903795	-52.911895	307.328191	756.161072	-169.453545	267.108995	664.966363	-25.655474	273.400312	576.544494	-36.721127	235.461231	498.963930	-42.619638	303.911135	573.961553	-60.455464	215.048035	396.193594	-60.005562	239.095404	417.516918	-139.043598	163.774490	374.005137	-106.888560	405.519117	356.557295	-105.583166	325.580247	327.384435	-42.273009	38.084876	875.983019	-431.919549	114.907597	836.662741	-422.105659	138.425549	863.251451	-413.401255	163.385888	762.301083	-421.164985	238.567763	679.316408	-405.866218	244.621300	674.474753	-283.996990	-53.383951	443.890843	-376.427506	-115.059280	446.051941	-328.956467	-2.297485	313.920116	-399.430050	134.473334	615.610808	-425.028113	93.771409	538.334032	-407.155664	16.540226	495.408043	-398.210652	116.688087	522.562497	-381.914280	79.194420	300.279778	-351.094214	-217.803198	830.879211	-214.198896	-104.168212	80.525131	-418.349921	-104.008431	80.617153	-18.329667	
6	0.0300	413.611417	1343.575172	-55.227243	429.319022	1351.881571	-390.932205	403.273856	1383.829447	-222.664113	373.869774	1243.247266	-220.420055	479.228253	1087.098947	19.153924	617.507689	911.001988	-30.503942	475.992578	1082.888113	-485.497610	619.560278	908.786722	-435.657550	-58.544517	1112.259720	-217.138562	105.863997	1082.679931	-372.940542	128.520023	1088.264220	-95.953031	116.079732	993.715790	-347.237859	118.991384	1007.514577	-93.841331	-5.438113	1144.176149	-165.184407	-0.855570	1144.627817	-277.716198	3.531966	1026.782451	-17.279954	-31.987000	987.561981	-416.509692	84.236473	918.167026	-1.550414	166.847137	892.930547	-21.540831	225.446609	830.084811	-28.606937	183.451933	924.539663	-35.063900	320.077554	768.974322	-52.881953	307.389336	756.164266	-169.387775	267.136563	665.017069	-25.640343	273.432051	576.654305	-36.698482	235.465386	499.054558	-42.612995	303.961565	574.019276	-60.421023	215.042707	396.246503	-60.018332	239.069933	417.621196	-138.984603	163.809307	374.105557	-106.922665	405.525748	356.618460	-105.590388	325.570646	327.460385	-42.265764	38.045495	875.885433	-431.758516	114.912917	836.590572	-422.094205	138.442592	863.196139	-413.405859	163.391832	762.206273	-421.132555	238.552219	679.617422	-406.126724	244.618471	674.412498	-283.996563	-53.374032	443.817019	-376.398473	-115.047492	445.975145	-328.950960	-2.329309	313.789074	-399.400360	134.479046	615.528002	-424.982559	93.769405	538.295699	-407.136864	16.555692	495.323091	-398.178225	116.710886	522.526993	-381.908108	79.204837	300.142157	-351.050277	-217.800600	830.880691	-214.193938	-104.121680	80.542050	-418.365972	-104.004725	80.590031	-18.344320	
